<?xml version="1.0" standalone="no"?>
<!DOCTYPE svg PUBLIC "-//W3C//DTD SVG 20010904//EN"
 "http://www.w3.org/TR/2001/REC-SVG-20010904/DTD/svg10.dtd">
<svg version="1.0" xmlns="http://www.w3.org/2000/svg"
 width="980.000000pt" height="976.000000pt" viewBox="0 0 980.000000 976.000000"
 preserveAspectRatio="xMidYMid meet">

<g transform="translate(0.000000,976.000000) scale(0.100000,-0.100000)"
fill="#000000" stroke="none">
<path d="M4500 9749 c-925 -80 -1777 -399 -2513 -942 -198 -145 -347 -275
-553 -481 -413 -413 -695 -808 -945 -1321 -265 -543 -421 -1106 -474 -1713
-17 -196 -20 -643 -4 -829 95 -1165 591 -2236 1419 -3063 617 -617 1356 -1044
2205 -1274 118 -32 412 -96 443 -96 9 0 12 388 12 1905 l0 1905 -590 0 -590 0
0 680 0 680 590 0 590 0 0 588 c0 455 3 616 15 714 38 327 129 590 286 828 84
128 272 315 398 398 240 157 518 251 840 282 197 19 693 7 1076 -25 93 -8 173
-15 177 -15 4 0 8 -274 8 -609 l0 -610 -462 -3 c-436 -4 -468 -5 -539 -25
-210 -59 -316 -162 -371 -360 -21 -75 -22 -101 -26 -620 l-3 -543 675 0 c655
0 676 -1 676 -19 0 -10 -38 -314 -85 -675 -47 -361 -85 -659 -85 -661 0 -3
-265 -5 -590 -5 l-590 0 0 -1920 0 -1920 25 0 c14 0 69 7 123 15 703 105 1386
370 1987 770 530 352 1004 828 1364 1368 459 688 729 1471 801 2322 15 177 12
624 -5 817 -89 1008 -467 1924 -1123 2718 -123 148 -464 489 -612 612 -493
407 -1006 693 -1590 888 -391 131 -750 204 -1175 240 -139 11 -646 11 -785 -1z"/>
</g>
</svg>
