<?xml version="1.0" standalone="no"?>
<!DOCTYPE svg PUBLIC "-//W3C//DTD SVG 20010904//EN"
 "http://www.w3.org/TR/2001/REC-SVG-20010904/DTD/svg10.dtd">
<svg version="1.0" xmlns="http://www.w3.org/2000/svg"
 width="2255.000000pt" height="2266.000000pt" viewBox="0 0 2255.000000 2266.000000"
 preserveAspectRatio="xMidYMid meet">

<g transform="translate(0.000000,2266.000000) scale(0.100000,-0.100000)"
fill="#000000" stroke="none">
<path d="M10772 22649 c-2453 -112 -4815 -1029 -6696 -2600 -349 -291 -766
-688 -1071 -1019 -2966 -3217 -3818 -7866 -2187 -11935 460 -1147 1112 -2224
1915 -3160 391 -455 879 -937 1343 -1324 2348 -1961 5408 -2881 8449 -2541
2185 245 4263 1133 5949 2541 349 291 766 688 1071 1019 2966 3217 3818 7866
2187 11935 -460 1147 -1112 2224 -1915 3160 -391 455 -879 937 -1343 1324
-2027 1693 -4605 2622 -7239 2609 -159 0 -368 -5 -463 -9z m1013 -589 c520
-22 961 -66 1410 -141 1415 -237 2701 -739 3896 -1524 938 -616 1847 -1443
2610 -2375 764 -933 1380 -2033 1754 -3130 303 -891 471 -1742 542 -2750 21
-306 24 -1158 5 -1440 -68 -988 -211 -1774 -474 -2605 -520 -1645 -1505 -3182
-2867 -4472 -1605 -1521 -3392 -2431 -5458 -2777 -1105 -186 -2370 -200 -3483
-40 -1951 281 -3662 1055 -5200 2353 -454 384 -1027 957 -1411 1411 -1447
1714 -2256 3677 -2428 5890 -33 414 -42 1118 -21 1521 60 1147 275 2199 654
3197 208 549 514 1173 824 1677 836 1364 2067 2633 3422 3529 1214 803 2564
1325 4008 1550 710 111 1501 156 2217 126z"/>
<path d="M6032 18913 c-20 -38 -105 -326 -152 -518 -53 -211 -100 -470 -122
-670 -20 -188 -18 -696 5 -865 23 -169 59 -348 97 -485 17 -58 30 -109 30
-114 0 -5 -37 -51 -81 -103 -299 -343 -588 -824 -718 -1193 -70 -196 -148
-528 -190 -800 -47 -302 -55 -432 -55 -855 -1 -423 8 -558 55 -900 132 -948
484 -1708 1041 -2245 422 -407 1017 -753 1698 -987 551 -189 1328 -341 2108
-413 41 -4 70 -11 65 -15 -4 -4 -35 -17 -68 -30 -149 -58 -469 -197 -557 -242
-53 -27 -127 -72 -165 -100 -94 -70 -266 -247 -337 -346 -71 -101 -154 -262
-186 -367 l-25 -78 -82 -54 c-194 -127 -456 -236 -683 -284 -89 -20 -135 -23
-305 -23 -168 0 -216 4 -300 22 -278 61 -549 189 -801 378 -227 171 -388 333
-697 704 -340 407 -509 563 -747 688 -109 58 -163 75 -314 102 -132 24 -212
25 -291 5 -122 -32 -250 -125 -274 -198 -19 -55 6 -94 118 -189 273 -232 579
-530 742 -723 157 -186 221 -282 414 -625 169 -301 407 -636 576 -815 175
-184 709 -449 1107 -549 463 -117 940 -105 1370 35 35 12 65 19 66 18 2 -2 0
-35 -5 -74 -17 -144 -7 -468 26 -850 40 -466 39 -748 -1 -926 -19 -84 -105
-264 -169 -354 -75 -105 -190 -206 -380 -335 -127 -87 -221 -174 -231 -214 -4
-18 0 -49 10 -82 41 -129 187 -171 524 -152 416 23 757 166 1004 420 100 103
148 176 188 285 67 185 63 97 70 1538 5 948 10 1324 18 1360 49 205 121 309
292 420 68 44 189 97 202 89 11 -7 9 -2957 -2 -3140 -11 -185 -31 -325 -70
-481 -57 -236 -92 -325 -203 -519 -57 -100 -122 -209 -145 -244 -27 -40 -40
-69 -37 -81 4 -10 34 -32 68 -49 l62 -30 100 10 c483 49 821 230 1039 558 129
194 230 485 293 847 16 91 17 235 20 1687 l4 1588 304 0 304 0 4 -1577 c3
-1692 1 -1623 52 -1854 45 -200 127 -430 206 -579 120 -223 311 -394 559 -500
98 -41 426 -135 529 -151 63 -10 92 -10 135 0 81 18 82 23 45 138 -43 132 -91
226 -188 361 -107 151 -141 246 -183 503 -22 133 -22 141 -25 1826 l-4 1691
23 -5 c48 -12 193 -85 254 -128 82 -59 154 -131 187 -187 39 -67 74 -182 86
-283 7 -60 11 -495 11 -1300 0 -1315 0 -1306 56 -1474 42 -124 82 -188 179
-286 257 -258 572 -406 957 -450 32 -3 122 -6 200 -7 229 0 338 36 379 125 38
84 16 159 -58 204 -301 186 -477 345 -627 566 l-56 82 -25 745 c-19 582 -25
904 -25 1470 0 681 -1 733 -20 850 -56 345 -156 630 -296 842 -65 98 -263 295
-405 401 -138 103 -313 213 -481 302 -141 75 -154 85 -112 85 52 0 364 29 539
51 732 88 1339 251 1806 485 701 350 1278 830 1623 1349 342 515 558 1191 641
2005 127 1259 -112 2394 -685 3245 -97 145 -198 273 -343 438 l-59 66 26 143
c78 432 85 842 21 1343 -43 341 -105 631 -191 903 l-45 143 -67 -5 c-37 -3
-125 -11 -197 -17 -401 -33 -796 -116 -1119 -235 -272 -101 -978 -480 -1264
-680 -35 -24 -70 -44 -78 -44 -8 0 -114 20 -237 44 -749 150 -1402 216 -2142
216 -820 0 -1541 -84 -2299 -267 -118 -28 -194 -42 -202 -37 -7 5 -72 52 -146
105 -560 404 -1184 681 -1855 823 -136 29 -427 72 -548 81 -44 3 -97 8 -117
11 -29 4 -39 2 -46 -13z"/>
</g>
</svg>
