<?xml version="1.0" standalone="no"?>
<!DOCTYPE svg PUBLIC "-//W3C//DTD SVG 20010904//EN"
 "http://www.w3.org/TR/2001/REC-SVG-20010904/DTD/svg10.dtd">
<svg version="1.0" xmlns="http://www.w3.org/2000/svg"
 width="512.000000pt" height="512.000000pt" viewBox="0 0 512.000000 512.000000"
 preserveAspectRatio="xMidYMid meet">

<g transform="translate(0.000000,512.000000) scale(0.100000,-0.100000)"
fill="#000000" stroke="none">
<path d="M2405 5020 c-481 -30 -947 -210 -1345 -518 -117 -91 -316 -287 -413
-407 -272 -337 -448 -721 -528 -1153 -26 -138 -37 -483 -20 -633 51 -449 212
-852 490 -1224 106 -141 360 -393 501 -497 163 -119 245 -170 405 -248 523
-255 1083 -315 1645 -176 176 44 300 90 485 181 674 331 1177 964 1340 1685
39 171 56 330 56 527 0 378 -79 708 -251 1058 -449 911 -1384 1467 -2365 1405z
m465 -216 c989 -134 1781 -921 1931 -1919 27 -180 29 -456 5 -630 -98 -699
-501 -1301 -1108 -1659 -469 -275 -1050 -371 -1593 -261 -434 88 -811 286
-1129 595 -377 367 -611 839 -676 1365 -15 119 -15 395 0 520 89 761 565 1435
1255 1778 402 200 857 273 1315 211z"/>
<path d="M1552 3960 c-103 -27 -166 -64 -248 -145 -81 -80 -126 -162 -149
-270 -22 -104 -22 -1856 0 -1960 44 -207 214 -376 422 -420 102 -22 1855 -22
1958 0 207 44 382 218 424 423 8 36 11 346 11 980 0 1018 1 991 -61 1115 -46
90 -154 194 -249 240 -41 19 -102 40 -134 46 -40 7 -364 11 -980 10 -874 0
-925 -1 -994 -19z m2088 -550 l0 -240 -234 0 -233 0 -7 38 c-3 20 -6 128 -6
240 l0 202 240 0 240 0 0 -240z m-955 -364 c82 -22 156 -65 221 -130 66 -66
102 -128 129 -220 24 -81 17 -229 -14 -308 -48 -124 -166 -242 -289 -288 -72
-28 -209 -37 -283 -20 -183 42 -338 194 -378 370 -15 66 -13 177 4 245 41 157
164 287 323 342 78 26 207 31 287 9z m-850 -203 c-49 -113 -64 -325 -31 -458
66 -273 295 -501 571 -571 92 -23 265 -23 360 0 97 23 237 94 316 159 116 96
215 255 256 407 24 92 24 283 -1 370 -10 36 -21 75 -23 88 l-5 22 208 -2 209
-3 0 -610 c0 -681 4 -642 -72 -725 -21 -24 -60 -54 -88 -66 l-50 -24 -930 0
-930 0 -50 24 c-60 29 -107 76 -134 136 -20 44 -21 63 -21 658 l0 612 211 0
c197 0 211 -1 204 -17z"/>
</g>
</svg>
