<?xml version="1.0" standalone="no"?>
<!DOCTYPE svg PUBLIC "-//W3C//DTD SVG 20010904//EN"
 "http://www.w3.org/TR/2001/REC-SVG-20010904/DTD/svg10.dtd">
<svg version="1.0" xmlns="http://www.w3.org/2000/svg"
 width="396.000000pt" height="396.000000pt" viewBox="0 0 396.000000 396.000000"
 preserveAspectRatio="xMidYMid meet">

<g transform="translate(0.000000,396.000000) scale(0.100000,-0.100000)"
fill="#000000" stroke="none">
<path d="M1820 3954 c-14 -2 -65 -9 -115 -15 -213 -26 -496 -121 -693 -232
-531 -301 -883 -807 -989 -1422 -24 -139 -24 -471 0 -610 81 -469 291 -853
639 -1170 273 -248 622 -414 1013 -482 139 -24 471 -24 610 0 701 121 1267
569 1526 1208 104 256 143 459 143 749 0 290 -39 493 -143 749 -258 637 -831
1091 -1521 1206 -90 15 -416 29 -470 19z m351 -134 c555 -56 1053 -358 1365
-825 282 -424 378 -936 268 -1434 -117 -528 -457 -979 -934 -1239 -168 -91
-401 -170 -605 -203 -105 -18 -455 -18 -560 0 -418 69 -773 254 -1065 557
-715 740 -691 1912 52 2630 395 382 933 569 1479 514z"/>
<path d="M1370 2831 c-107 -22 -180 -111 -180 -218 0 -174 219 -272 374 -167
46 32 86 111 86 172 0 138 -137 242 -280 213z"/>
<path d="M2319 2331 c-31 -10 -77 -32 -102 -50 l-47 -32 0 30 c0 20 -7 34 -19
41 -12 6 -92 10 -191 10 -99 0 -179 -4 -191 -10 -18 -10 -19 -27 -19 -548 0
-405 3 -541 12 -550 8 -8 68 -12 204 -12 166 0 193 2 198 16 3 9 6 160 6 337
0 315 1 323 23 362 29 52 96 88 150 82 51 -7 80 -28 103 -74 17 -34 19 -70 24
-378 l5 -340 194 -3 c140 -2 197 1 208 10 23 18 14 718 -10 801 -49 171 -157
282 -308 316 -67 16 -178 12 -240 -8z"/>
<path d="M1222 2318 c-17 -17 -17 -1079 0 -1096 17 -17 379 -17 396 0 16 16
17 1059 2 1089 -10 18 -23 19 -198 19 -133 0 -192 -4 -200 -12z"/>
</g>
</svg>
