<?xml version="1.0" standalone="no"?>
<!DOCTYPE svg PUBLIC "-//W3C//DTD SVG 20010904//EN"
 "http://www.w3.org/TR/2001/REC-SVG-20010904/DTD/svg10.dtd">
<svg version="1.0" xmlns="http://www.w3.org/2000/svg"
 width="880.000000pt" height="884.000000pt" viewBox="0 0 880.000000 884.000000"
 preserveAspectRatio="xMidYMid meet">

<g transform="translate(0.000000,884.000000) scale(0.100000,-0.100000)"
fill="#000000" stroke="none">
<path d="M4090 8829 c-653 -48 -1301 -245 -1861 -565 -346 -197 -696 -469
-979 -760 -703 -724 -1125 -1641 -1232 -2674 -17 -163 -17 -657 0 -820 107
-1033 529 -1950 1232 -2674 563 -580 1280 -997 2058 -1197 1013 -260 2080
-151 3013 307 205 101 294 151 478 272 1127 734 1841 1920 1983 3292 17 163
17 657 0 820 -107 1033 -529 1950 -1232 2674 -563 580 -1280 997 -2058 1197
-451 116 -954 162 -1402 128z m820 -314 c1135 -140 2121 -709 2813 -1623 687
-906 961 -2082 751 -3219 -79 -429 -242 -878 -455 -1256 -87 -154 -271 -424
-385 -567 -127 -158 -423 -459 -577 -586 -647 -533 -1414 -851 -2241 -929
-183 -17 -546 -20 -721 -5 -1762 151 -3235 1406 -3655 3115 -87 354 -114 586
-114 980 -1 323 7 421 55 701 133 792 513 1550 1063 2123 356 371 705 631
1141 851 496 251 964 380 1565 434 113 10 631 -3 760 -19z"/>
<path d="M3325 6493 c-438 -11 -1209 -76 -1350 -114 -63 -17 -114 -47 -170
-100 -122 -116 -155 -301 -80 -454 32 -66 119 -149 191 -182 79 -36 150 -39
364 -14 488 56 836 75 1380 75 569 1 911 -19 1370 -80 617 -81 1169 -225 1625
-424 147 -65 220 -79 307 -61 261 53 397 325 281 560 -57 117 -129 166 -411
280 -919 371 -2137 549 -3507 514z"/>
<path d="M3190 4949 c-319 -14 -736 -50 -958 -83 -221 -33 -359 -170 -370
-367 -10 -171 75 -313 230 -384 80 -36 141 -39 338 -16 756 88 1640 94 2330
16 583 -67 1126 -199 1541 -376 192 -82 253 -96 343 -80 136 23 239 102 299
229 29 60 32 76 32 157 -1 80 -4 98 -32 157 -63 135 -132 182 -433 301 -873
344 -2041 501 -3320 446z"/>
<path d="M3200 3469 c-380 -14 -896 -64 -983 -95 -155 -55 -256 -186 -265
-345 -10 -174 72 -311 234 -386 75 -36 156 -36 444 -6 295 32 475 43 820 50
912 17 1746 -105 2332 -342 275 -111 262 -108 363 -103 156 7 263 76 332 216
36 72 38 81 38 172 0 88 -3 101 -33 162 -61 124 -122 169 -363 268 -748 307
-1784 453 -2919 409z"/>
</g>
</svg>
