<?xml version="1.0" standalone="no"?>
<!DOCTYPE svg PUBLIC "-//W3C//DTD SVG 20010904//EN"
 "http://www.w3.org/TR/2001/REC-SVG-20010904/DTD/svg10.dtd">
<svg version="1.0" xmlns="http://www.w3.org/2000/svg"
 width="902.000000pt" height="902.000000pt" viewBox="0 0 902.000000 902.000000"
 preserveAspectRatio="xMidYMid meet">

<g transform="translate(0.000000,902.000000) scale(0.100000,-0.100000)"
fill="#000000" stroke="none">
<path d="M4250 9014 c-1151 -80 -2169 -544 -2956 -1346 -656 -668 -1079 -1499
-1233 -2423 -44 -265 -55 -407 -55 -735 0 -328 11 -470 55 -735 205 -1226 901
-2310 1928 -3003 533 -360 1146 -604 1786 -711 265 -44 407 -55 735 -55 328 0
470 11 735 55 1319 220 2468 1008 3148 2157 278 469 475 1011 566 1557 44 265
55 407 55 735 0 328 -11 470 -55 735 -205 1226 -901 2310 -1928 3003 -607 410
-1297 662 -2046 747 -133 15 -612 27 -735 19z m720 -279 c999 -112 1880 -533
2580 -1235 718 -719 1141 -1622 1241 -2650 18 -185 15 -612 -5 -805 -87 -807
-372 -1533 -853 -2168 -414 -547 -983 -1005 -1605 -1293 -884 -409 -1863 -506
-2798 -278 -164 40 -537 160 -546 176 -5 7 1 9 17 5 13 -3 101 -11 195 -18
200 -14 487 -2 719 31 1112 157 2071 759 2692 1690 327 491 540 1069 617 1675
23 178 38 485 31 610 l-7 110 104 82 c147 115 235 199 343 325 85 99 229 297
222 305 -2 1 -43 -15 -93 -36 -147 -64 -352 -123 -539 -157 -121 -21 -124 -19
-54 32 178 132 389 408 469 616 17 42 30 79 30 82 0 3 -55 -24 -122 -58 -229
-117 -523 -219 -669 -232 l-67 -7 -80 71 c-195 171 -410 279 -665 334 -81 17
-136 21 -267 21 -131 0 -186 -4 -267 -21 -283 -61 -498 -177 -704 -382 -213
-212 -338 -446 -395 -740 -23 -121 -24 -380 -2 -489 l15 -74 -121 7 c-741 42
-1535 353 -2151 842 -126 100 -456 427 -530 526 -27 37 -54 67 -58 67 -11 1
-88 -165 -117 -249 -47 -140 -63 -246 -64 -420 -1 -240 38 -415 140 -629 96
-203 218 -354 415 -514 l34 -28 -125 5 c-80 3 -153 12 -204 25 -92 24 -208 75
-232 102 -32 36 -37 23 -30 -83 35 -518 308 -923 774 -1146 56 -27 143 -62
192 -78 49 -16 90 -32 90 -36 0 -4 -33 -18 -72 -30 -66 -21 -92 -23 -281 -23
l-208 0 7 -40 c3 -22 17 -69 31 -105 122 -312 460 -608 835 -731 96 -31 244
-59 316 -59 23 0 42 -4 42 -10 0 -5 -33 -37 -72 -71 -247 -212 -649 -393
-1061 -476 l-127 -25 -53 40 c-279 212 -640 592 -863 907 -752 1064 -973 2393
-609 3650 282 968 913 1822 1760 2378 622 408 1315 642 2060 697 169 12 573 4
745 -15z"/>
</g>
</svg>
