<?xml version="1.0" standalone="no"?>
<!DOCTYPE svg PUBLIC "-//W3C//DTD SVG 20010904//EN"
 "http://www.w3.org/TR/2001/REC-SVG-20010904/DTD/svg10.dtd">
<svg version="1.0" xmlns="http://www.w3.org/2000/svg"
 width="493.000000pt" height="298.000000pt" viewBox="0 0 493.000000 298.000000"
 preserveAspectRatio="xMidYMid meet">
<metadata>
Created by potrace 1.16, written by Peter Selinger 2001-2019
</metadata>
<g transform="translate(0.000000,298.000000) scale(0.100000,-0.100000)"
fill="#000000" stroke="none">
<path d="M470 2955 c-38 -12 -77 -47 -242 -212 -170 -171 -198 -204 -208 -243
-13 -49 -7 -107 15 -150 21 -40 2298 -2301 2341 -2324 19 -10 55 -21 79 -23
96 -11 53 -51 1302 1194 1138 1134 1152 1149 1163 1199 8 38 8 63 -1 100 -11
45 -28 65 -213 250 -189 189 -204 202 -252 213 -39 10 -61 9 -99 0 -59 -15 28
67 -1048 -986 -457 -447 -834 -813 -838 -813 -4 0 -413 397 -909 883 -495 485
-916 890 -934 899 -49 25 -104 30 -156 13z"/>
</g>
</svg>
